{
  "accessors": [
    {
      "bufferView": 2,
      "componentType": 5126,
      "count": 27668,
      "max": [
        0.9790895581245422,
        8.345036506652832,
        0.30437061190605164
      ],
      "min": [
        -0.9767379760742188,
        -3.269040822982788,
        -0.3044341206550598
      ],
      "type": "VEC3"
    },
    {
      "bufferView": 2,
      "byteOffset": 332016,
      "componentType": 5126,
      "count": 27668,
      "max": [
        0.9999476075172424,
        0.9944577217102051,
        0.9999998807907104
      ],
      "min": [
        -0.999970555305481,
        -0.9999998807907104,
        -0.9999998211860657
      ],
      "type": "VEC3"
    },
    {
      "bufferView": 3,
      "componentType": 5126,
      "count": 27668,
      "max": [
        0.9996631145477295,
        1.0,
        0.9999979734420776,
        1.0
      ],
      "min": [
        -0.9996773600578308,
        -0.9799878597259521,
        -0.9999955892562866,
        1.0
      ],
      "type": "VEC4"
    },
    {
      "bufferView": 1,
      "componentType": 5126,
      "count": 27668,
      "max": [
        0.9980400204658508,
        0.9919599890708923
      ],
      "min": [
        0.0019499999471008778,
        0.0019499999471008778
      ],
      "type": "VEC2"
    },
    {
      "bufferView": 0,
      "componentType": 5125,
      "count": 157764,
      "type": "SCALAR"
    }
  ],
  "asset": {
    "extras": {
      "author": "JoseDiaz (https://sketchfab.com/JoseDiaz)",
      "license": "CC-BY-4.0 (http://creativecommons.org/licenses/by/4.0/)",
      "source": "https://sketchfab.com/3d-models/sword-test-ef52c640195b4735a01411ad3d6a45da",
      "title": "Sword Test"
    },
    "generator": "Sketchfab-12.65.0",
    "version": "2.0"
  },
  "bufferViews": [
    {
      "buffer": 0,
      "byteLength": 631056,
      "name": "floatBufferViews",
      "target": 34963
    },
    {
      "buffer": 0,
      "byteLength": 221344,
      "byteOffset": 631056,
      "byteStride": 8,
      "name": "floatBufferViews",
      "target": 34962
    },
    {
      "buffer": 0,
      "byteLength": 664032,
      "byteOffset": 852400,
      "byteStride": 12,
      "name": "floatBufferViews",
      "target": 34962
    },
    {
      "buffer": 0,
      "byteLength": 442688,
      "byteOffset": 1516432,
      "byteStride": 16,
      "name": "floatBufferViews",
      "target": 34962
    }
  ],
  "buffers": [
    {
      "byteLength": 1959120,
      "uri": "scene.bin"
    }
  ],
  "images": [
    {
      "uri": "textures/defaultMat_baseColor.png"
    },
    {
      "uri": "textures/defaultMat_normal.png"
    }
  ],
  "materials": [
    {
      "doubleSided": true,
      "emissiveFactor": [
        0.20007621951219515,
        0.20007621951219515,
        0.20007621951219515
      ],
      "emissiveTexture": {
        "index": 0
      },
      "name": "defaultMat",
      "normalTexture": {
        "index": 1
      },
      "pbrMetallicRoughness": {
        "baseColorTexture": {
          "index": 0
        },
        "metallicFactor": 0.0,
        "roughnessFactor": 0.6
      }
    }
  ],
  "meshes": [
    {
      "name": "Object_0",
      "primitives": [
        {
          "attributes": {
            "NORMAL": 1,
            "POSITION": 0,
            "TANGENT": 2,
            "TEXCOORD_0": 3
          },
          "indices": 4,
          "material": 0,
          "mode": 4
        }
      ]
    }
  ],
  "nodes": [
    {
      "children": [
        1
      ],
      "matrix": [
        0.8167004585266113,
        -0.5770618319511414,
        -1.8364461772416382e-16,
        0.0,
        0.5770618319511414,
        0.8167004585266113,
        5.699219892744381e-16,
        0.0,
        -1.6653345369377348e-16,
        -5.828670879282072e-16,
        1.0,
        0.0,
        -1.4643638134002686,
        -2.0721340179443355,
        -2.5379614830017094,
        1.0
      ],
      "name": "Sketchfab_model"
    },
    {
      "children": [
        2
      ],
      "name": "Low.OBJ.cleaner.materialmerger.gles"
    },
    {
      "mesh": 0,
      "name": "Object_2"
    }
  ],
  "samplers": [
    {
      "magFilter": 9729,
      "minFilter": 9987,
      "wrapS": 10497,
      "wrapT": 10497
    }
  ],
  "scene": 0,
  "scenes": [
    {
      "name": "Sketchfab_Scene",
      "nodes": [
        0
      ]
    }
  ],
  "textures": [
    {
      "sampler": 0,
      "source": 0
    },
    {
      "sampler": 0,
      "source": 1
    }
  ]
}
